<?xml version="1.0" encoding="utf-8"?>
<!-- Generator: Adobe Illustrator 24.0.3, SVG Export Plug-In . SVG Version: 6.00 Build 0)  -->
<svg version="1.1" id="Layer_1" xmlns="http://www.w3.org/2000/svg" xmlns:xlink="http://www.w3.org/1999/xlink" x="0px" y="0px"
	 viewBox="0 0 300 90" style="enable-background:new 0 0 300 90;" xml:space="preserve">
<style type="text/css">
	.st0{fill:#FF1D25;}
	.st1{fill:#FFFFFF;stroke:#FFFFFF;stroke-miterlimit:10;}
</style>
<g>
	<path class="st0" d="M261.8,11.1H38c-6.5,0-11.9,4.9-11.9,10.8V68c0,6,5.3,10.8,11.9,10.8h223.9c6.5,0,11.9-4.9,11.9-10.8V22
		C273.7,16,268.4,11.1,261.8,11.1z"/>
	<g>
		<path class="st1" d="M30.1,62.9c1.7,0,3.5-0.4,5.2-1.2s3.3-1.7,4.8-2.6c0.3-0.2,0.5-0.5,0.5-0.9s0-0.7-0.1-0.9
			c-0.1-0.3-0.4-0.5-0.7-0.6s-0.7-0.1-1,0.1c-0.6,0.3-1.2,0.7-2,1.2s-1.4,0.8-2.2,1.2c0.4-0.7,0.7-1.4,1-2.3
			c0.4-1.5,0.5-3.1,0.2-4.7c-0.3-1.6-0.8-3-1.3-4.3c-0.2-0.5-0.4-0.9-0.7-1.3c-0.3-0.4-0.5-0.9-0.6-1.5c-0.1-0.5-0.1-0.9,0-1.2
			c0.1-0.4,0.2-0.8,0.4-1.4c0.1-0.4,0.3-0.8,0.4-1.2c0.1-0.4,0.3-0.8,0.4-1.3l1.4-3.4c0.2-0.5,0.1-0.9-0.2-1.2s-0.7-0.5-1.2-0.5
			s-0.8,0.2-1,0.6c-0.3,0.6-0.5,1.2-0.7,1.8s-0.4,1.1-0.7,1.8c-0.6,1.5-1.3,3.2-2,4.9c-0.3,0.7-0.6,1.4-0.9,2.1s-0.5,1.3-0.8,2
			c-0.6,1.4-1.4,2.7-2.3,4v3.8c2.2-2.6,3.9-5.4,5.2-8.6c1.1,1.8,1.7,3.6,2,5.4c0.1,1.1,0.1,2.1,0,3.1s-0.6,1.9-1.3,2.6
			c-0.6,0.7-1.4,1-2.3,1c-0.5,0-1.1-0.1-1.7-0.2c-0.6-0.2-1.2-0.4-1.7-0.6c-0.1,0-0.1,0-0.2-0.1v3.2c0.4,0.3,0.9,0.5,1.3,0.6
			C28.2,62.7,29.1,62.9,30.1,62.9z"/>
		<path class="st1" d="M52.1,23.3c-2.2,0.4-4.4,0.9-6.7,1.5c-2.2,0.6-4.4,1.2-6.6,1.9c-0.4,0.1-0.7,0.4-0.8,0.7
			c-0.1,0.3-0.2,0.6-0.1,1c0.1,0.3,0.3,0.5,0.6,0.8c0.3,0.2,0.6,0.2,1,0.1c3.9-1.2,7.8-2.2,11.9-3c-0.1,0.1-0.1,0.3-0.1,0.4
			s0,0.3-0.1,0.4c-0.8,2.4-1.5,4.9-2,7.4c-0.6,2.5-1.2,5-1.8,7.4c-0.3,1.3-0.7,2.6-1.1,3.9c-0.4,1.3-0.7,2.6-0.8,3.9
			c-0.8,1.2-1.7,2.4-2.8,3.5c-1,1.2-2.1,2.2-3.2,3.1c-0.5,0.3-0.7,0.6-0.8,0.7c-0.4,0.7-0.5,1.4-0.2,2.1c0.3,0.6,0.8,0.7,1.5,0.1
			c1.9-1.3,3.7-3,5.4-5c0.1,1.5,0.4,2.7,0.7,3.8c0.5,1.5,1.6,2.7,3.1,3.7c1.6,1,3.1,1.4,4.7,1.4c1.7,0,3.3-0.4,5-1.2
			c1.6-0.8,3.1-1.7,4.5-2.6c0.3-0.2,0.5-0.5,0.5-0.9s0-0.7-0.2-0.9c-0.2-0.3-0.4-0.5-0.7-0.6s-0.6-0.1-1,0.2
			c-1.2,0.8-2.6,1.7-4.1,2.6c-1.6,0.9-3.1,1.2-4.7,0.9c-2.4-0.5-3.9-1.4-4.4-2.9S48,54.5,48,52.4c0-0.3,0-0.5,0-0.8s0-0.6,0.1-0.9
			c2.5-4,4.8-8.1,6.8-12.4s3.7-8.7,5.1-13.1c2.3-0.3,4.7-0.4,7.1-0.4s4.8,0.1,7.2,0.2c0.4,0,0.7-0.1,1-0.4c0.2-0.2,0.4-0.5,0.4-0.9
			c0-0.3-0.1-0.6-0.4-1c-0.4-0.5-0.7-0.7-1.1-0.8c-2.3-0.3-4.5-0.4-6.8-0.3c-2.2,0.1-4.5,0.2-6.7,0.5c0.5-1.9,1-3.9,1.4-5.9
			c0.3-1.7,0.5-3.4,0.6-5.1H60c0,1.7-0.1,3.3-0.3,5c-0.2,2-0.7,3.8-1.6,5.6C58,21.8,58,22,58,22.1s0,0.3-0.1,0.4
			c-0.5,0.1-1,0.1-1.5,0.1c-0.4,0-0.9,0.1-1.4,0.2c0.6-2.4,1.3-4.8,2-7.1c0.5-1.5,1-3,1.7-4.6h-2.8c-0.7,1.7-1.3,3.4-1.9,5.3
			C53.3,18.7,52.7,21,52.1,23.3z M55.6,25.4c0.4,0,0.9-0.1,1.4-0.2c-0.9,2.7-2,5.5-3.2,8.2s-2.4,5.4-3.8,8c0.4-1.6,0.8-3.2,1.2-4.8
			s0.8-3.2,1.3-4.8c0.3-1.1,0.6-2.1,0.8-3.1s0.5-2,0.8-3.1C54.6,25.5,55.1,25.4,55.6,25.4z"/>
		<path class="st1" d="M86.3,56.5c-0.3-0.1-0.7-0.1-1,0.2c-0.8,0.6-1.6,1.2-2.5,1.8s-1.8,1.1-2.7,1.6c-0.4,0.2-0.9,0.2-1.5,0
			s-0.9-0.5-1-0.9c-0.3-0.8-0.4-1.6-0.4-2.5s0.1-1.7,0.2-2.5c0.1-1.3,0.4-2.5,0.7-3.7s0.8-2.3,1.3-3.4c0.2-0.4,0.4-0.9,0.7-1.6
			c0.3-0.6,0.5-1.3,0.7-2s0.4-1.4,0.5-2c0.2-0.6,0.2-1.2,0.2-1.6c0.1-0.6,0-1.2-0.2-1.9c-0.2-0.6-0.4-1.2-0.7-1.8
			c-0.4-0.9-1.1-1.4-2-1.4c-0.5,0-0.9,0.1-1.4,0.4c-1.2,0.7-2.3,1.6-3.4,2.6s-2.3,1.8-3.6,2.2c0-0.5,0-1,0-1.5s-0.2-1-0.5-1.5
			c-0.3-0.7-0.9-1.3-1.6-1.9c-0.7-0.6-1.5-0.7-2.3-0.4c-0.7,0.3-1.2,0.8-1.6,1.7s-0.5,1.7-0.4,2.4s0.6,1.4,1.4,2.1s1.5,1.2,2.2,1.5
			c0,0.4,0,1-0.2,1.8c-0.1,0.8-0.2,1.6-0.3,2.5c-0.1,0.8-0.3,1.6-0.4,2.3s-0.3,1.3-0.4,1.6c-0.4,1.1-1,2.2-1.9,3.3
			c-0.8,1.1-1.7,2-2.6,2.8c-0.3,0.3-0.5,0.6-0.5,0.9c0,0.3,0.2,0.6,0.4,0.8s0.5,0.4,0.9,0.5s0.7,0,1-0.3c1.3-1,2.4-2.1,3.2-3.3
			c0.8-1.2,1.4-2.5,1.8-3.8c0.5-1.3,0.8-2.8,1-4.2s0.4-3,0.6-4.5c0.4,0,0.9-0.2,1.6-0.5c0.7-0.4,1.5-0.8,2.2-1.3s1.5-1,2.2-1.5
			s1.1-0.9,1.4-1.2s0.5-0.4,0.8-0.5c0.3,0.7,0.4,1.3,0.4,1.8s-0.1,1.1-0.3,1.8c-0.2,0.7-0.4,1.3-0.5,2c-0.2,0.7-0.4,1.3-0.7,1.9
			c-0.7,1.3-1.2,2.7-1.6,4.1c-0.4,1.4-0.8,2.8-1,4.3c-0.1,1.1-0.2,2.1-0.2,3.2c0,1.1,0.1,2.1,0.5,3.1c0.3,0.9,0.9,1.6,1.7,2.1
			c0.8,0.5,1.7,0.7,2.6,0.8c0.8,0.1,1.5-0.1,2.2-0.5s1.4-0.8,2-1.3c0.5-0.3,1-0.7,1.5-1.1c0.5-0.4,0.9-0.7,1.4-1
			c0.3-0.3,0.5-0.6,0.5-1s0-0.7-0.2-0.9C86.9,56.9,86.6,56.7,86.3,56.5z M67.3,39.3c-0.1-0.1-0.2-0.2-0.4-0.3
			c-0.1-0.2-0.2-0.4-0.3-0.5c-0.1-0.1-0.1-0.2,0-0.4c0-0.1,0-0.1,0.1-0.2c0.1-0.1,0.1-0.2,0.2-0.3c0.3,0.3,0.5,0.7,0.7,1
			c0.1,0.3,0.1,0.7,0.1,1C67.6,39.5,67.4,39.4,67.3,39.3z"/>
		<path class="st1" d="M106.7,38C106.7,38.1,106.8,38.1,106.7,38L106.7,38z"/>
		<path class="st1" d="M114.2,56.5c-0.3-0.1-0.6-0.1-1,0.2c-0.7,0.5-1.4,1.1-2.1,1.6s-1.4,1-2.2,1.4c-0.5,0.3-0.9,0.4-1.3,0.5
			s-0.8-0.1-1.1-0.8c-0.3-0.5-0.5-1.1-0.5-1.9c0-0.7,0-1.3,0.1-1.9c0.1-1.9,0.4-3.7,0.7-5.2c0.3-0.7,0.5-1.5,0.7-2.1
			c0.2-0.7,0.4-1.4,0.7-2.2c0.4-1.3,0.7-2.5,1-3.8s0.4-2.6,0.4-3.9c0-0.4-0.2-0.7-0.5-0.9c-0.1-0.6-0.4-1.1-0.7-1.4
			c-0.6-0.6-1.3-1-2.2-1.1c-0.9-0.2-1.7-0.2-2.4-0.1c-1.3,0.1-2.5,0.4-3.8,1s-2.5,1.4-3.6,2.3c-1.1,0.9-2.1,1.9-3,3
			s-1.7,2.2-2.2,3.2c-0.7,1.5-1.4,3-2,4.7s-0.9,3.4-0.8,5.1c-0.5,0.4-1.1,0.8-1.6,1.2c-0.6,0.4-1.1,0.8-1.7,1.3
			c-0.3,0.2-0.5,0.5-0.5,0.8c-0.1,0.3,0,0.7,0.1,1s0.4,0.5,0.8,0.6s0.7,0.1,1.1-0.2l2.4-1.8c0.5,1.5,1.4,2.7,2.5,3.8
			c1.2,1,2.6,1.7,4.2,1.8c1.8,0.3,3.3-0.1,4.6-1c1.3-0.9,2.4-2.1,3.3-3.5c0.1,1.3,0.5,2.3,1.1,3.1c0.5,0.5,1.1,1,1.8,1.3
			c0.8,0.3,1.5,0.3,2.2,0c1.1-0.4,2.1-0.9,3-1.6c0.9-0.7,1.9-1.4,2.8-2.1c0.3-0.3,0.5-0.6,0.5-1s0-0.7-0.2-0.9
			C114.8,56.9,114.5,56.7,114.2,56.5z M92.7,47.4c0.8-1.7,1.9-3.3,3-4.8c1.2-1.5,2.6-2.7,4.1-3.7s3-1.4,4.6-1.4
			c0.8,0,1.5,0.2,2.1,0.5c0-0.1,0-0.1,0.1,0s0,0.1-0.1,0v0.5c-0.1,0.7-0.7,1.6-1.6,2.5c-0.9,1-1.6,1.7-2.1,2.2
			c-0.9,0.8-1.8,1.6-2.8,2.3s-2,1.5-3,2.2s-2,1.5-3,2.2s-2,1.5-3,2.2C91.4,50.8,91.9,49.2,92.7,47.4z M105.1,46.9
			c-0.1,0.3-0.2,0.7-0.2,1.1c0,0.4-0.1,0.8-0.2,1.2c-0.1,0.5-0.3,1-0.6,1.7c-0.2,0.7-0.5,1.3-0.8,2.1c-0.3,0.7-0.5,1.3-0.8,1.9
			c-0.3,0.6-0.5,1.1-0.8,1.5c-0.5,0.8-1,1.6-1.7,2.3c-0.6,0.7-1.4,1.2-2.4,1.5c-1.5,0.4-2.8,0.1-3.9-0.8c-1.1-0.9-1.9-2-2.3-3.3
			c-0.1-0.1-0.1-0.3-0.1-0.6c1.3-0.9,2.5-1.9,3.8-2.8c1.3-1,2.6-1.9,3.9-2.8c1.2-0.9,2.4-1.8,3.5-2.7c1.2-0.9,2.2-1.9,3.2-2.9
			C105.6,45.3,105.4,46.2,105.1,46.9z"/>
		<path class="st1" d="M153.6,56.7c-0.3-0.1-0.7,0-1,0.2c-0.3,0.1-0.7,0.4-1.2,0.7s-0.9,0.4-1.2,0.3c-0.1,0-0.2-0.1-0.3-0.4
			c-0.1-0.3-0.2-0.5-0.3-0.6c-0.5-1.1-0.9-2.2-1.2-3.4s-0.4-2.4-0.5-3.6c0.5-1.5,1.1-2.8,1.6-4.1c0.3-0.7,0.7-1.6,1-2.5
			c0.4-0.9,0.6-1.8,0.7-2.8c0.1-0.7,0-1.6-0.2-2.6s-0.5-1.7-1-2.2c-0.3-0.3-0.7-0.5-1.1-0.6c-0.4-0.1-0.8,0-1.2,0.1
			c-0.3,0.2-0.6,0.5-0.8,0.9s-0.4,0.8-0.6,1.2c-0.5,1.5-0.9,3-1.2,4.6s-0.3,3.2-0.2,4.7c0.1,0.5,0.1,0.9,0.1,1.4s0.1,0.9,0.2,1.4
			c-0.1,0.3-0.2,0.4-0.2,0.5c-0.3,0.6-0.8,1.4-1.5,2.5s-1.4,2.2-2.2,3.2c-0.8,1.1-1.6,2.1-2.4,3s-1.6,1.4-2.2,1.6
			c-0.4,0.1-0.8,0.1-1.2-0.1c-0.4-0.2-0.7-0.5-0.9-0.9c-0.3-0.4-0.5-0.8-0.7-1.2s-0.3-0.8-0.3-1c-0.3-1.3-0.3-2.7,0-4
			c0.3-1.4,0.6-2.7,0.9-4.1c0-0.1,0-0.1,0-0.1l0.1-0.1c0.5-2,1-4,1.4-6s0.8-4,1.2-6.1c0.1-0.5,0-0.9-0.3-1.2
			c-0.4-0.3-0.7-0.4-1.1-0.4c-0.6,0-1,0.3-1.1,0.9c-0.4,1.9-0.8,3.9-1.2,5.8c-0.4,1.9-0.8,3.8-1.2,5.8c-0.4,1.7-1.1,3.5-2.1,5.3
			s-2.1,3.5-3.2,4.9c-0.2,0.2-0.4,0.5-0.7,0.9s-0.6,0.7-1,1s-0.7,0.5-1.1,0.8c-0.4,0.2-0.7,0.2-1,0.1c-0.7-0.3-1.3-0.9-1.7-1.8
			c-0.4-0.8-0.6-1.6-0.6-2.3c0-0.5,0-1,0-1.5s0.1-1,0.2-1.5c0.8-1.1,1.5-2.3,2-3.6c0.6-1.3,1.1-2.6,1.7-3.9c0.3-0.7,0.6-1.5,0.9-2.3
			s0.5-1.6,0.6-2.4c0.1-0.8,0.2-1.7,0.1-2.5s-0.3-1.6-0.8-2.4c-0.4-0.7-1-1.1-1.7-1.1s-1.4,0.4-1.9,1.3c-0.4,0.7-0.7,1.5-1,2.4
			s-0.5,1.7-0.6,2.5c-0.3,1.5-0.5,3-0.6,4.5s-0.4,3-0.8,4.4c-0.1,0.3-0.2,0.7-0.2,1c0,0.4-0.1,0.7-0.2,1.1c-0.7,0.9-1.6,1.8-2.5,2.5
			c-1,0.7-1.9,1.5-2.8,2.2c-0.3,0.3-0.5,0.6-0.6,1c0,0.4,0,0.7,0.2,1s0.4,0.4,0.8,0.5c0.3,0.1,0.7,0,1-0.2c0.6-0.5,1.2-0.9,1.9-1.4
			c0.6-0.5,1.2-1,1.8-1.5c0.1,1.3,0.5,2.7,1.2,4.1s1.8,2.3,3.3,2.6c1,0.3,1.9,0.1,2.8-0.5c0.8-0.6,1.6-1.2,2.2-1.9
			c1.3-1.3,2.3-2.6,3.2-3.9c0.1,1,0.4,2,0.9,3c0.5,0.9,1.2,1.8,2.1,2.5s1.9,1,2.9,0.8c0.8-0.1,1.7-0.5,2.6-1.2
			c0.9-0.7,1.8-1.5,2.5-2.4s1.5-1.9,2.2-2.9s1.2-1.8,1.6-2.5c0.1,0.5,0.3,1.1,0.5,1.8s0.5,1.4,0.8,2.1c0.3,0.7,0.7,1.2,1.1,1.8
			c0.4,0.5,0.9,0.8,1.5,0.9c0.7,0.1,1.5,0,2.2-0.3c0.8-0.3,1.4-0.7,2-1c0.4-0.2,0.6-0.5,0.6-0.9s0-0.7-0.2-1
			C154.2,57,153.9,56.8,153.6,56.7z M122.8,41.8c0.1-0.8,0.3-1.5,0.5-2.2l0.3-0.6c0,1.1-0.1,2-0.2,2.6c-0.2,0.7-0.5,1.5-1,2.5
			C122.6,43.3,122.7,42.6,122.8,41.8z M147.9,41.3c0.2-0.9,0.3-1.6,0.5-2.2v0.2c0,0.9,0,1.6-0.1,2.1c-0.1,0.6-0.3,1.2-0.7,1.9
			C147.7,42.9,147.8,42.2,147.9,41.3z"/>
		<path class="st1" d="M152.1,56.7L152.1,56.7L152.1,56.7z"/>
		<path class="st1" d="M167,19.4c-0.5,2-1.1,4.1-1.6,6.1c-0.9,3.4-1.9,6.8-2.8,10.1c-0.9,3.4-1.9,6.7-2.8,10.1
			c-0.9,1.6-1.7,3.2-2.6,4.8c-0.9,1.6-2,3.1-3.3,4.5c-0.2,0.2-0.4,0.4-0.6,0.6s-0.4,0.5-0.7,0.6c-0.1,0.1-0.2,0.2-0.4,0.4l-0.1,0.1
			c0,0,0.1-0.1,0.2-0.1c-0.3,0.3-0.5,0.6-0.5,0.9c0,0.3,0,0.6,0.2,0.9c0.2,0.3,0.4,0.5,0.7,0.6s0.6,0,1-0.2c0.7-0.5,1.4-1.1,2-1.8
			c0.6-0.6,1.2-1.3,1.7-2c-0.1,0.5-0.3,1-0.5,1.5s-0.3,1-0.4,1.6c0.5,0.1,0.9,0.3,1.2,0.4c-0.5,1-0.4,2,0.2,3
			c0.5,0.8,1.3,1.2,2.4,1.2c1.1,0,2,0,2.8-0.2c1.9-0.2,3.8-0.8,5.6-1.7c0.5,0.3,0.9,0.5,1.3,0.7c0.4,0.2,0.9,0.4,1.4,0.5
			c1.9,0.6,3.7,0.3,5.4-0.8c1.3-0.9,2.6-1.7,3.7-2.5c0.3-0.3,0.5-0.6,0.5-0.9c0-0.4,0-0.7-0.2-1c0,0-0.3-0.2-0.6-0.4
			c-0.3-0.1-0.6-0.1-1,0.2c-0.7,0.5-1.3,1-1.9,1.4c-0.6,0.4-1.3,0.8-2,1.3c-0.6,0.4-1.2,0.6-1.9,0.6c-0.6,0-1.3-0.2-2.1-0.5
			c1.9-1.5,3.5-3.1,4.8-4.8s2.3-3.7,3-6.2c0.5-1.7,0.6-3.6,0.4-5.5c-0.1-0.9-0.2-1.9-0.5-2.8c-0.3-1-0.7-1.8-1.2-2.6s-1.2-1.4-2-1.9
			s-1.8-0.8-2.9-0.8c-1,0-1.9,0.3-2.8,0.8c-0.9,0.5-1.7,1.1-2.5,1.7l-0.2,0.2c1.9-3.7,3.7-7.5,5.2-11.4c1.6-3.9,2.7-7.9,3.5-12
			c0.1-0.9,0.2-1.7,0.3-2.6c0-0.1,0-0.2,0-0.4h-2.2c-0.2,0.8-0.4,1.6-0.5,2.4c-0.5,3.8-1.6,7.6-3.2,11.3c-1.6,3.7-3.2,7.3-4.9,10.7
			c0.7-2.6,1.5-5.1,2.2-7.7s1.4-5.2,2.1-7.9c0.5-2.1,1.1-4.2,1.7-6.1c0.3-0.9,0.6-1.8,0.9-2.7h-3c-0.2,0.8-0.5,1.5-0.8,2.3
			C168.1,15.4,167.5,17.4,167,19.4z M163.4,60.1c-0.8,0.1-1.8,0.2-2.8,0.2c-0.3,0-0.4,0-0.5-0.1c-0.1-0.3-0.1-0.7,0.2-1
			s0.6-0.5,0.9-0.6c0.8-0.3,1.6-0.4,2.5-0.1c0.8,0.2,1.6,0.6,2.4,1C165.2,59.8,164.3,60,163.4,60.1z M165.8,42.5
			c0.7-0.7,1.4-1.5,2.2-2.1c0.8-0.7,1.6-1.3,2.4-1.9c0.8-0.5,1.5-0.9,2.1-1c0.7-0.1,1.5,0,2.2,0.4s1.2,0.9,1.5,1.6
			c0.3,0.7,0.6,1.5,0.7,2.4s0.2,1.7,0.3,2.5c0.1,1.7-0.1,3.2-0.8,4.7c-0.7,1.4-1.5,2.8-2.5,4.2c-0.7,0.9-1.5,1.8-2.4,2.6
			c-0.8,0.7-1.7,1.5-2.6,2.1c-1-0.6-2-1.1-3.1-1.6s-2.2-0.8-3.3-0.8c-0.9,0-1.7,0.2-2.6,0.7c0.3-1.1,0.6-2.3,1-3.4
			c0.3-1.1,0.6-2.3,0.9-3.4c0.3-0.9,0.7-1.8,1.1-2.6c0.4-0.8,0.8-1.7,1.3-2.5C164.6,43.9,165.1,43.2,165.8,42.5z"/>
		<path class="st1" d="M201.5,56.6c-0.3-0.1-0.7,0-1,0.2c-1.3,0.8-2.6,1.6-4.1,2.4s-3,1.2-4.5,1.2c-0.9,0-1.7-0.2-2.4-0.5
			c-1.7-0.9-2.8-1.9-3.2-2.9s-0.7-2.5-0.7-4.5c0.4-1.1,0.7-2.2,0.9-3.3c0.7-0.1,1.3-0.2,2-0.2c0.6,0,1.3-0.1,2-0.2
			c1.1-0.2,2.2-0.5,3.2-0.8s2-0.8,2.9-1.6c1.1-0.9,2-1.9,2.7-3c0.6-1.1,1-2.3,1.2-3.7c0.1-0.6,0.1-1.2,0-1.8s-0.3-1.2-0.7-1.7
			c-0.5-0.5-1-0.9-1.7-1.1c-0.6-0.2-1.3-0.3-2-0.2c-1.4,0.1-2.7,0.4-4,1s-2.4,1.4-3.4,2.4s-2,2-2.8,3.2s-1.4,2.4-1.9,3.7
			c-0.4,1.1-0.7,2.2-0.8,3.3c-0.2,1.2-0.2,2.3-0.2,3.5c-0.5,0.9-1,1.8-1.5,2.5c-0.5,0.8-1.2,1.5-2.1,2.1c-0.3,0.3-0.5,0.6-0.5,0.9
			c0,0.4,0,0.7,0.2,1c0.1,0.3,0.4,0.5,0.7,0.6s0.7,0.1,1-0.2c1.1-0.9,2.1-1.7,2.8-2.6c0.4,2.1,1.4,3.7,3,4.8s3.5,1.7,5.5,1.7
			c1.9,0,3.6-0.4,5.2-1.2c1.6-0.8,3.2-1.7,4.7-2.6c0.3-0.2,0.5-0.5,0.5-0.9s0-0.7-0.2-1C202.1,56.9,201.8,56.7,201.5,56.6z
			 M187.6,43.3c0.6-1.1,1.4-2,2.3-2.9s1.9-1.6,3-2.1s2.2-0.8,3.5-0.8c0.7,0,1,0.1,1.2,0.4c0.1,0.2,0.1,0.6,0.1,1.2
			c0,1.1-0.2,2.1-0.7,2.8s-1.1,1.5-1.9,2.2s-1.7,1.2-2.5,1.4c-0.9,0.2-1.9,0.4-2.9,0.6c-0.6,0.1-1.2,0.2-1.8,0.2s-1.1,0.1-1.8,0.2
			C186.5,45.5,187,44.4,187.6,43.3z"/>
		<path class="st1" d="M224.8,56.5c-0.3-0.1-0.7-0.1-1,0.2c-0.8,0.6-1.6,1.2-2.5,1.8s-1.8,1.1-2.7,1.6c-0.4,0.2-0.9,0.2-1.5,0
			s-0.9-0.5-1-0.9c-0.3-0.8-0.4-1.6-0.3-2.5c0-0.9,0.1-1.7,0.2-2.5c0.1-1.3,0.3-2.5,0.6-3.7s0.8-2.3,1.4-3.4
			c0.2-0.4,0.4-0.9,0.7-1.6c0.3-0.6,0.5-1.3,0.7-2s0.4-1.4,0.5-2c0.2-0.6,0.2-1.2,0.2-1.6c0.1-0.6,0-1.2-0.2-1.9
			c-0.2-0.6-0.4-1.2-0.7-1.8c-0.4-0.9-1.1-1.4-2-1.4c-0.5,0-0.9,0.1-1.4,0.4c-1.2,0.7-2.3,1.6-3.4,2.6s-2.3,1.8-3.6,2.2
			c0-0.5,0-1,0-1.5s-0.2-1-0.5-1.5c-0.3-0.7-0.9-1.3-1.6-1.9c-0.7-0.6-1.5-0.7-2.3-0.4c-0.7,0.3-1.2,0.8-1.6,1.7
			c-0.4,0.9-0.5,1.7-0.4,2.4s0.6,1.4,1.4,2.1c0.8,0.7,1.5,1.2,2.2,1.5c0,0.4,0,1-0.2,1.8c-0.1,0.8-0.2,1.6-0.3,2.5
			c-0.1,0.8-0.3,1.6-0.4,2.3c-0.1,0.7-0.3,1.3-0.4,1.6c-0.4,1.1-1,2.2-1.9,3.3c-0.8,1.1-1.7,2-2.6,2.8c-0.3,0.3-0.5,0.6-0.5,0.9
			c0,0.3,0.2,0.6,0.4,0.8s0.5,0.4,0.9,0.5s0.7,0,1-0.3c1.3-1,2.4-2.1,3.2-3.3s1.4-2.5,1.8-3.8c0.5-1.3,0.8-2.8,1-4.2
			c0.2-1.5,0.4-3,0.6-4.5c0.4,0,1-0.2,1.6-0.5c0.7-0.4,1.5-0.8,2.2-1.3c0.8-0.5,1.5-1,2.2-1.5s1.1-0.9,1.4-1.2
			c0.3-0.3,0.5-0.4,0.8-0.5c0.3,0.7,0.4,1.3,0.4,1.8s-0.1,1.1-0.3,1.8s-0.4,1.3-0.5,2c-0.2,0.7-0.4,1.3-0.6,1.9
			c-0.7,1.3-1.2,2.7-1.7,4.1c-0.4,1.4-0.8,2.8-1,4.3c-0.1,1.1-0.2,2.1-0.2,3.2c0,1.1,0.1,2.1,0.5,3.1c0.3,0.9,0.9,1.6,1.7,2.1
			s1.7,0.7,2.6,0.8c0.8,0.1,1.5-0.1,2.2-0.5s1.4-0.8,2-1.3c0.5-0.3,1-0.7,1.5-1.1c0.5-0.4,0.9-0.7,1.4-1c0.3-0.3,0.5-0.6,0.5-1
			s0-0.7-0.1-0.9C225.4,56.9,225.1,56.7,224.8,56.5z M205.8,39.3c-0.1-0.1-0.2-0.2-0.3-0.3c-0.1-0.2-0.2-0.4-0.4-0.5
			c-0.1-0.1-0.1-0.2,0-0.4c0-0.1,0-0.1,0.1-0.2c0.1-0.1,0.1-0.2,0.2-0.3c0.3,0.3,0.5,0.7,0.7,1c0.1,0.3,0.1,0.7,0.1,1
			C206.1,39.5,205.9,39.4,205.8,39.3z"/>
		<path class="st1" d="M248.1,56.5c-0.3-0.1-0.7-0.1-1,0.2c-0.8,0.6-1.6,1.2-2.5,1.8s-1.8,1.1-2.7,1.6c-0.4,0.2-0.9,0.2-1.5,0
			s-0.9-0.5-1-0.9c-0.3-0.8-0.4-1.6-0.3-2.5c0-0.9,0.1-1.7,0.2-2.5c0.1-1.3,0.3-2.5,0.6-3.7s0.8-2.3,1.4-3.4
			c0.2-0.4,0.4-0.9,0.7-1.6c0.3-0.6,0.5-1.3,0.7-2s0.4-1.4,0.5-2c0.2-0.6,0.2-1.2,0.2-1.6c0.1-0.6,0-1.2-0.2-1.9
			c-0.2-0.6-0.4-1.2-0.7-1.8c-0.4-0.9-1.1-1.4-2-1.4c-0.5,0-0.9,0.1-1.4,0.4c-1.2,0.7-2.3,1.6-3.4,2.6c-1.1,1-2.3,1.8-3.6,2.2
			c0-0.5,0-1,0-1.5s-0.2-1-0.5-1.5c-0.3-0.7-0.9-1.3-1.6-1.9c-0.7-0.6-1.5-0.7-2.3-0.4c-0.7,0.3-1.2,0.8-1.6,1.7
			c-0.4,0.9-0.5,1.7-0.4,2.4s0.6,1.4,1.4,2.1s1.5,1.2,2.2,1.5c0,0.4,0,1-0.2,1.8c-0.1,0.8-0.2,1.6-0.3,2.5c-0.1,0.8-0.3,1.6-0.4,2.3
			c-0.1,0.7-0.3,1.3-0.4,1.6c-0.4,1.1-1,2.2-1.9,3.3c-0.8,1.1-1.7,2-2.6,2.8c-0.3,0.3-0.5,0.6-0.5,0.9c0,0.3,0.2,0.6,0.4,0.8
			s0.5,0.4,0.9,0.5s0.7,0,1-0.3c1.3-1,2.4-2.1,3.2-3.3s1.4-2.5,1.8-3.8c0.5-1.3,0.8-2.8,1-4.2c0.2-1.5,0.4-3,0.6-4.5
			c0.4,0,1-0.2,1.6-0.5c0.7-0.4,1.5-0.8,2.2-1.3c0.8-0.5,1.5-1,2.2-1.5s1.1-0.9,1.4-1.2c0.3-0.3,0.5-0.4,0.8-0.5
			c0.3,0.7,0.4,1.3,0.4,1.8s-0.1,1.1-0.3,1.8s-0.4,1.3-0.5,2c-0.2,0.7-0.4,1.3-0.6,1.9c-0.7,1.3-1.2,2.7-1.7,4.1
			c-0.4,1.4-0.8,2.8-1,4.3c-0.1,1.1-0.2,2.1-0.2,3.2c0,1.1,0.1,2.1,0.5,3.1c0.3,0.9,0.9,1.6,1.7,2.1s1.7,0.7,2.6,0.8
			c0.8,0.1,1.5-0.1,2.2-0.5s1.4-0.8,2-1.3c0.5-0.3,1-0.7,1.5-1.1c0.5-0.4,0.9-0.7,1.4-1c0.3-0.3,0.5-0.6,0.5-1s0-0.7-0.1-0.9
			C248.7,56.9,248.4,56.7,248.1,56.5z M229.1,39.3c-0.1-0.1-0.2-0.2-0.3-0.3c-0.1-0.2-0.2-0.4-0.4-0.5c-0.1-0.1-0.1-0.2,0-0.4
			c0-0.1,0-0.1,0.1-0.2c0.1-0.1,0.1-0.2,0.2-0.3c0.3,0.3,0.5,0.7,0.7,1c0.1,0.3,0.1,0.7,0.1,1C229.4,39.5,229.2,39.4,229.1,39.3z"/>
		<path class="st1" d="M273.8,46.5V34.9h-0.1v11.8C273.8,46.6,273.8,46.5,273.8,46.5z"/>
		<path class="st1" d="M273.9,57.5c-0.1,0-0.1,0.1-0.2,0.1v3.3c0.1,0,0.1-0.1,0.2-0.1V57.5z"/>
		<path class="st1" d="M271.4,59.1c-1.2,0.8-2.3,1.7-3.5,2.6c0.3-1.2,0.6-2.4,0.9-3.7c0.3-1.2,0.5-2.5,0.8-3.8
			c0.7-1.3,1.5-2.7,2.2-4c0.7-1.1,1.2-2.4,1.9-3.5V34.8c-0.4-0.2-0.7-0.1-1,0c-0.4,0.2-0.7,0.4-1,0.8c-0.3,0.4-0.5,0.9-0.7,1.4
			s-0.3,0.9-0.4,1.2c-0.5,1.6-1,3.2-1.4,4.8s-0.7,3.2-1,4.8c-0.2,0.9-0.4,1.8-0.5,2.7c-0.2,0.9-0.4,1.8-0.5,2.7
			c-0.5,0.9-1,1.7-1.5,2.6s-1.2,1.6-2,2.3c-0.7,0.6-1.7,1.2-2.8,1.7s-2.1,0.6-3,0.2c-1-0.3-1.7-0.9-2-1.6c-0.4-0.7-0.6-1.6-0.6-2.6
			c0-0.7,0-1.3,0-2s0.1-1.4,0.2-2.1c0.4-0.5,0.8-1.1,1.2-1.6s0.7-1.1,1-1.7c0.5-0.9,1.1-1.9,1.7-3c0.6-1,1-2.1,1.4-3.2
			c0.4-1.1,0.5-2.1,0.5-3.2c0-1.1-0.3-2.1-1-3.1c-0.3-0.4-0.6-0.7-0.9-1c-0.4-0.3-0.8-0.3-1.4-0.2c-0.5,0.1-0.9,0.4-1.2,0.9
			s-0.5,0.9-0.6,1.4c-0.3,1-0.7,2-1,3s-0.7,2-1,3.1s-0.5,2.2-0.5,3.3s-0.2,2.3-0.5,3.4c-0.1,0.2-0.1,0.5-0.1,0.9
			c-0.9,1.1-1.8,2.1-2.8,3.2c-1,1-2.1,1.9-3.2,2.8c-0.3,0.3-0.5,0.6-0.5,0.9c0,0.4,0,0.7,0.2,1c0.1,0.3,0.4,0.5,0.7,0.6
			s0.7,0.1,1-0.2c1.6-1.2,3-2.5,4.3-3.8v1.3c0,1.8,0.6,3.3,1.7,4.5c1.1,1.2,2.6,1.8,4.4,1.8c1.1,0,2.3-0.3,3.6-0.9
			c1.3-0.6,2.3-1.3,3.2-2c-0.1,0.7-0.3,1.4-0.5,2s-0.3,1.3-0.4,2c-3.8,2.5-7.4,5.3-10.9,8.4c-2.2,1.9-4.1,4.1-5.8,6.5h3.4
			c0.7-0.9,1.5-1.8,2.3-2.7c1.3-1.3,2.8-2.6,4.3-3.9c0.9-0.7,1.9-1.5,2.8-2.2s1.9-1.5,2.8-2.2c0,0.1,0,0.2-0.1,0.2c0,0,0,0.1,0,0.2
			c-0.4,1.7-1,4-1.8,6.9c-0.3,1.2-0.7,2.4-1,3.6h1c0.6,0,1.1-0.1,1.7-0.1c0.3-0.9,0.5-1.8,0.8-2.7c1-3.5,1.9-7,2.8-10.5
			c1.3-1,2.7-2,4.1-2.9c0.8-0.6,1.7-1.1,2.5-1.7v-3.3C272.9,58.1,272.2,58.6,271.4,59.1z M272.2,42c0.3-1.3,0.7-2.2,1-2.9
			c0.1,0.5,0,1,0,1.4c-0.1,0.4-0.2,0.9-0.4,1.5c-0.1,0.5-0.3,1-0.5,1.5s-0.5,1-0.8,1.5C271.6,44.3,271.9,43.3,272.2,42z M257.2,42.3
			c0.3-1.1,0.7-2.3,1.2-3.4c0.1,0.6,0.1,1.2,0,1.8c-0.1,0.9-0.4,1.8-0.8,2.6s-0.8,1.6-1.3,2.4C256.6,44.6,256.9,43.5,257.2,42.3z"/>
	</g>
</g>
</svg>
